<svg width="76" height="75" viewBox="0 0 76 75" fill="none" xmlns="http://www.w3.org/2000/svg">
<g opacity="0.3">
<path fill-rule="evenodd" clip-rule="evenodd" d="M4.94049 52.2089H5.57813C5.7748 52.3594 5.57885 52.6001 5.72789 52.7751C5.85274 52.7819 5.97904 52.7888 6.16669 52.7989C6.31176 52.5001 6.41496 52.0663 6.93208 52.2092C7.13055 52.2562 6.97285 52.5131 7.11576 52.5777C7.41744 52.6769 7.62421 52.5098 7.90568 52.3561C8.27159 52.8696 8.93846 52.9927 9.38449 53.4524C9.47109 53.8057 9.31628 54.2005 9.59018 54.5462C9.67606 54.6544 9.64683 54.9908 9.54327 55.0886C9.22571 55.3888 9.61039 55.6959 9.5079 55.9012C9.3567 56.2047 9.47723 56.445 9.41805 56.6796C9.69158 56.7933 9.78829 56.6468 9.96764 56.4591C10.0012 57.183 10.1188 57.8351 9.7421 58.4695C9.59992 58.485 9.44475 58.5019 9.21957 58.5272C9.30618 58.8437 9.00775 59.075 9.02002 59.3893C9.0395 59.9071 8.8782 60.373 8.61513 60.7963C8.39465 61.1499 8.43073 61.5227 8.4246 61.911C8.12003 62.1907 7.80825 62.4761 7.49033 62.7677C7.50404 62.7792 7.45821 62.741 7.35753 62.6572C7.22113 62.7713 7.08508 62.9661 6.91151 63.0094C6.67262 63.0686 6.51023 63.3205 6.20711 63.2343C5.99456 63.1736 5.75098 63.218 5.52147 63.2238C5.3295 63.2289 5.1238 63.2061 4.94915 63.2675C4.72253 63.3465 4.52983 63.5702 4.30501 63.6002C3.88641 63.6558 3.45482 63.6161 2.994 63.6161C2.76269 63.1765 2.25677 63.0722 1.85188 62.8918C1.35678 62.671 1.12186 62.2888 0.966689 61.8749C0.808632 61.4527 1.08253 61.0161 1.281 60.6469C1.53577 60.1742 1.86668 59.7321 2.32353 59.4214C1.99153 58.8877 1.68697 58.3756 2.1265 57.7799C2.25316 56.0488 3.33321 54.7338 4.10582 53.2882C4.31079 52.905 4.8131 52.726 4.94049 52.2089" fill="black"/>
<path fill-rule="evenodd" clip-rule="evenodd" d="M69.832 18.617C69.7699 18.6921 69.7147 18.7588 69.6581 18.827C69.7061 18.9804 69.862 18.9093 69.9713 18.9663C70.1528 19.1009 69.9175 19.3517 70.1243 19.5141C70.1911 19.5073 70.3148 19.5314 70.3614 19.4824C70.963 18.8509 71.0723 19.1136 71.606 19.5903C71.6692 19.6469 71.7013 19.6476 71.7904 19.6556C73.0188 19.7628 73.4958 20.2423 73.6337 21.4537C73.7935 21.4732 73.8433 21.2167 74.0692 21.3159C74.1901 21.7128 74.6942 21.9644 74.5824 22.5306C74.5593 22.6486 74.8083 22.8203 74.9317 22.9672C74.459 23.3609 75.3705 23.9076 74.8032 24.2901C74.8151 24.5424 75.1013 24.5882 75.1551 24.8069C75.2179 25.0598 75.0201 25.2125 74.9552 25.4153C74.7296 26.1233 74.245 26.6934 73.8942 27.3325C73.5987 27.8713 72.9387 28.0997 72.432 28.3924C72.1592 28.3386 72.0722 28.0994 71.8846 27.9889C71.8276 28.134 71.7832 28.247 71.7085 28.4357C71.5804 28.2484 71.4743 28.0939 71.3761 27.9514C71.1091 28.1253 71.2935 28.3621 71.1549 28.5497H69.8129C69.744 28.4804 69.6076 28.344 69.4455 28.182C68.9768 28.6363 68.5766 28.2758 68.1547 28.0095C67.5968 28.5743 67.0292 27.7154 66.4551 28.0366C66.2082 27.7648 65.8366 27.6255 65.8957 27.1788C65.9022 27.1297 65.8477 27.028 65.8142 27.0244C65.1473 26.9565 65.2083 26.3019 64.9499 25.927C65.1134 25.5188 65.4187 25.2002 65.7438 24.8971C65.816 24.8303 65.8831 24.6986 65.9531 24.6982C66.8278 24.6943 66.8636 23.8694 67.2497 23.3908C67.5842 22.9762 67.7091 22.4577 67.8491 21.9698C67.9855 21.496 68.0771 21.0009 68.0945 20.4841C68.1129 19.9288 68.0815 19.2406 68.8577 19.0147C68.9959 18.9743 69.0991 18.7989 69.2074 18.6762C69.3925 18.4665 69.596 18.5019 69.832 18.617" fill="black"/>
<path fill-rule="evenodd" clip-rule="evenodd" d="M50.0837 32.2815C49.7571 32.423 49.4183 32.5446 49.0217 32.5266C48.2693 32.493 47.5122 32.4847 46.7609 32.5302C46.3863 32.5529 46.0005 32.497 45.6805 32.4129C45.4261 32.3469 45.2565 32.7222 45.0518 32.4385C44.8848 32.2076 44.6177 32.3876 44.4167 32.3133C44.1894 32.2292 43.9992 32.0181 43.6993 32.169C43.5658 32.2256 43.7867 32.5327 43.4814 32.5078C42.887 32.467 43.2349 31.6955 42.7387 31.5501C42.7034 31.6515 42.6629 31.7652 42.62 31.886C42.4645 31.9167 42.3642 31.755 42.3573 31.6937C42.2992 31.1986 42.0264 30.7446 42.082 30.2293C42.1025 30.0431 42.1303 29.8815 42.2191 29.6945C42.4814 29.1406 42.7203 28.5427 42.6561 27.9191C42.6168 27.5359 42.9332 27.2952 42.8899 26.9148C42.8531 26.59 42.7138 26.1935 43.0678 25.9167C43.0678 25.327 43.1025 24.7341 43.0592 24.1474C43.0014 23.3705 43.4572 22.9085 43.9902 22.4867C44.0692 22.4246 44.2403 22.4784 44.3586 22.4784C44.5062 22.8035 44.6816 23.0944 44.6675 23.5974C44.848 23.2445 44.9393 23.0312 45.1265 22.8667C45.3828 22.6415 45.6058 22.5733 45.8753 22.8227C45.9883 22.9273 46.0633 23.0875 46.2643 23.0709C46.8298 23.0229 47.2314 23.3336 47.5591 23.7328C47.8723 24.1138 48.3577 24.3282 48.4335 24.9517C48.4883 25.4017 48.886 25.8019 49.0895 26.2433C49.6359 27.4262 50.1883 28.6073 50.6802 29.8129C50.9173 30.3935 50.6719 30.9796 50.4463 31.5317C50.3431 31.7836 50.21 32.0232 50.0837 32.2815" fill="black"/>
<path fill-rule="evenodd" clip-rule="evenodd" d="M55.2421 44.9213C55.2713 45.279 55.1894 45.6615 55.3421 45.8282C55.5932 46.1014 55.0472 46.2702 55.3684 46.4813C55.8711 46.0931 55.848 45.3656 56.3164 44.9553C56.6469 45.0989 56.9714 45.2537 57.1312 45.4901C57.3997 45.5363 57.4354 45.3627 57.6061 45.2883C58.111 45.5709 58.7262 45.7964 59.0943 46.3042C59.5598 46.9469 59.9993 47.6329 59.9957 48.4845C59.9939 48.8782 59.9625 49.2748 60.0011 49.6649C60.1293 50.9521 59.7341 52.1422 59.348 53.333C59.1867 53.8303 58.9186 54.2806 58.6035 54.6862C58.3794 54.8237 58.1478 54.7321 57.867 54.766L57.46 54.3586C57.1843 54.325 57.1381 54.7122 56.8772 54.7595C56.7173 54.7876 56.656 54.6509 56.5564 54.569C56.4885 54.6307 56.4196 54.6931 56.3334 54.7714C56.2915 54.6494 56.2522 54.535 56.2125 54.4206C56.1666 54.3561 56.132 54.3752 56.0717 54.447C55.6304 54.9728 55.0321 54.9987 54.4013 54.9471C53.9989 54.6891 53.7637 54.2402 53.1874 54.1009C52.5934 53.9577 52.3498 52.9887 52.6233 52.3944C52.8474 51.9069 53.1195 51.4591 52.7294 50.9095C52.6212 50.7568 52.6389 50.4281 52.7266 50.2394C52.9676 49.7215 52.9178 49.1488 53.1011 48.6234C53.2715 48.1348 53.3718 47.6202 53.5627 47.141C53.6208 46.9956 53.6911 46.8689 53.6998 46.7051C53.7319 46.0952 54.0892 45.6189 54.384 45.1213C54.5727 44.8033 54.9 44.9347 55.2421 44.9213" fill="black"/>
<path fill-rule="evenodd" clip-rule="evenodd" d="M31.1431 29.9361C31.085 29.8863 31.0175 29.8289 30.9338 29.7574C30.8851 29.8913 30.8436 30.0046 30.7942 30.1396C30.1818 29.878 29.6834 30.32 29.1248 30.4243C28.904 30.4654 28.0675 30.6055 27.851 30.5849C27.79 30.5788 27.6976 30.5293 27.6749 30.5531C27.4122 30.8216 27.0708 30.6903 26.7716 30.7588C26.5147 30.8176 26.2881 30.4128 26.0452 30.7411C25.5573 30.3381 24.9857 30.626 24.4567 30.556C24.1352 30.5138 23.8039 30.5481 23.4828 30.5481C23.3846 30.4499 23.2919 30.3572 23.1988 30.2644C23.2717 30.1345 23.4604 30.0573 23.3774 29.8422C23.1006 29.6495 22.756 29.8451 22.459 29.721C22.1847 29.4792 22.0429 29.2223 22.3645 28.9105C22.4348 28.8423 22.5442 28.7831 22.5665 28.7005C22.7787 27.9311 23.4441 27.8972 24.0479 27.7994C24.6675 27.6994 25.1997 27.4151 25.6826 27.2004C25.9381 26.5281 25.553 26.0048 25.5418 25.4358C25.5306 24.9031 25.6681 24.355 25.3686 23.8372C25.2975 23.7141 25.2492 23.4211 25.4343 23.2962C25.7414 23.0876 25.71 22.6207 26.0636 22.4904C26.2224 22.432 26.4129 22.4717 26.5992 22.6113C26.7771 22.7448 26.623 23.027 26.8785 23.0682C27.0787 23.0999 27.1744 22.9408 27.2631 22.821C27.4125 22.6192 27.6291 22.6348 27.7922 22.6885C28.0159 22.7621 28.209 22.9299 28.415 23.0573C28.7084 22.7062 28.931 23.1129 29.079 23.2038C29.2847 23.3294 29.5232 23.4305 29.7091 23.5925C29.9061 23.7639 30.0804 23.9624 30.2684 24.1442C30.3853 24.2576 30.4582 24.3723 30.4943 24.5466C30.5203 24.6711 30.6505 24.7112 30.5333 24.9107C30.4073 25.1261 30.797 24.9583 30.88 25.1868C31.2117 26.1005 31.7955 26.8965 32.1633 27.7994C32.2427 27.9935 32.2506 28.1476 32.1936 28.336C32.0005 28.9758 31.7147 29.5514 31.1431 29.9361" fill="black"/>
<path fill-rule="evenodd" clip-rule="evenodd" d="M27.5951 0.625977C28.4446 0.673971 28.4446 0.673971 28.5831 1.59633C29.0743 1.13768 29.0743 1.13768 29.5737 1.00705C29.7144 1.38018 29.9086 1.7432 30.4311 1.62123C30.5022 1.60463 30.6101 1.67067 30.6768 1.72696C31.0687 2.05895 31.2207 2.59303 31.6515 2.89435C31.6306 3.53199 32.0636 4.15628 31.8287 4.77191C31.5797 5.42542 31.5169 6.12838 31.1593 6.75808C30.7219 7.52816 30.2503 8.25421 29.5798 8.89943C29.2179 8.8637 28.8321 8.88175 28.6246 9.30215C28.5359 9.22348 28.4666 9.16141 28.3973 9.09971C27.7571 9.74312 27.594 10.7416 26.8052 11.2465C26.4937 11.3959 26.3101 10.9968 26.086 11.0779C25.7926 11.184 25.6013 10.8098 25.3274 10.987C25.0893 11.1415 24.8424 11.0512 24.6238 11.03C24.395 10.7312 24.9518 10.5966 24.7143 10.3248C24.5379 10.288 24.4469 10.6034 24.2088 10.4168C24.0702 9.76802 24.2983 9.18126 24.5451 8.55914C24.8125 7.88433 25.1856 7.21818 25.1524 6.45207C25.1405 6.17746 25.33 5.99594 25.4317 5.78015C25.732 5.14467 25.9427 4.48105 26.1838 3.82753C26.4865 3.00585 26.5771 2.10659 27.0675 1.33904C27.223 1.09618 27.4042 0.890487 27.5951 0.625977" fill="black"/>
<path fill-rule="evenodd" clip-rule="evenodd" d="M33.8986 54.9647C33.729 55.1621 33.9238 55.4021 33.725 55.5399C33.4421 55.5857 33.2263 55.371 33.2458 55.1884C33.319 54.5082 32.8687 54.2018 32.4313 53.8608C32.3028 53.7612 32.1978 53.632 32.082 53.5158C31.9016 53.1138 32.1769 52.7988 32.2852 52.4513C32.4317 52.3481 32.5926 52.4113 32.7481 52.4102C32.9055 52.4935 32.7481 52.8392 33.0859 52.7869C33.3071 52.7108 33.3908 52.3849 33.3919 52.2875C33.398 51.7072 33.5359 51.1811 33.8166 50.6827C33.5323 50.0693 33.9974 49.5435 34.0202 48.9625C34.0443 48.3476 34.3529 47.8521 34.7632 47.4032C34.936 47.2138 35.124 47.3274 35.3034 47.2571C35.29 47.5938 35.7065 47.6999 35.4892 48.2549C35.844 47.868 35.8295 47.4599 36.1557 47.4873C36.6801 47.531 37.286 47.5137 37.6937 47.7756C38.0871 48.0286 38.7893 48.1379 38.7413 48.8698C38.7381 48.9221 38.777 48.9964 38.8203 49.03C39.572 49.6128 39.6283 50.529 39.9109 51.3305C40.1375 51.9717 40.3298 52.6231 40.3266 53.326C40.3251 53.7176 39.922 54.0109 40.1389 54.3949C39.9195 54.7435 39.5128 54.9084 39.4486 55.4158C38.65 54.7576 37.8637 55.5663 37.1019 55.3349C36.9273 55.4208 36.998 55.5811 36.9229 55.6911C36.7905 55.8171 36.6148 55.6983 36.6198 55.6965C36.2918 55.8138 36.4758 56.0798 36.2582 56.1158C36.1514 56.0531 36.185 55.9477 36.1774 55.8445C35.9771 55.6132 35.6848 55.8319 35.4553 55.7088C35.3434 55.5966 35.228 55.4807 35.1092 55.3627C34.7729 55.5774 34.7134 55.9592 34.5391 56.3183C34.3013 56.1916 34.1815 56.0253 34.2064 55.7416C34.2316 55.4511 34.2497 55.148 33.8986 54.9647" fill="black"/>
<path fill-rule="evenodd" clip-rule="evenodd" d="M28.1981 73.4816C28.0786 73.2936 28.1494 73.1352 27.9985 73.0706C27.795 73.2824 27.9917 73.5722 27.8758 73.8205C27.7777 73.8306 27.6889 73.8392 27.529 73.8555V72.9068C27.3472 73.4672 26.5367 73.2705 26.4392 73.8501C26.2902 73.6191 26.0632 73.6422 25.837 73.6621C25.6378 73.7999 25.8366 74.0413 25.6926 74.2026C25.4822 74.2856 25.2596 74.243 25.033 74.2279C24.8785 74.0233 24.9962 73.7873 24.9572 73.5671C24.7436 73.3402 24.5556 73.0739 24.2142 73.0085C24.3116 72.848 24.1842 72.5921 24.2373 72.5387C24.4744 72.3005 24.2763 71.8913 24.6335 71.7015C24.9641 71.5261 24.5696 71.0509 24.9168 70.843C24.5397 70.4298 25.0932 70.0719 24.981 69.6399C24.8785 69.2469 24.959 68.806 24.959 68.4115C24.784 68.3242 24.7735 68.4707 24.6833 68.5039C24.4228 68.5194 24.6797 68.204 24.4855 68.1665C24.4433 68.1957 24.3737 68.2167 24.3556 68.2596C24.1139 68.8327 23.8598 69.4104 24.0186 70.0524C24.1857 70.7246 24.2286 70.7315 23.9616 71.5759C23.8858 71.8159 24.3437 71.8953 24.033 72.1345C23.8605 72.267 24.0994 72.6015 23.8133 72.7314C23.9287 72.9346 23.9601 73.1839 24.1554 73.3427C24.1186 73.4466 24.0366 73.4546 23.9407 73.46C23.6401 73.4769 23.4492 73.3492 23.386 73.0533C23.333 72.805 23.4769 72.5376 23.3088 72.2976C23.1886 72.1255 23.3979 71.8895 23.1951 71.7152C23.1464 71.6741 23.1468 71.4742 23.1944 71.4373C23.5271 71.1804 23.2597 70.9625 23.2106 70.7023C23.1623 70.4475 23.133 70.1613 23.3041 69.8658C23.5159 69.5017 23.3647 69.0925 23.2038 68.6984C23.1128 68.4765 22.9154 68.606 22.8252 68.4707C23.0905 68.1445 22.9804 67.7735 22.9743 67.4426C22.8689 67.3239 22.6946 67.3506 22.6924 67.3719C22.6614 67.6656 22.2886 67.9233 22.5874 68.2517C22.3305 68.4787 22.1504 68.8467 21.6604 68.7147C21.6983 68.4999 21.7755 68.2603 21.8419 68.0738C21.9151 67.8692 22.0367 67.6855 22.005 67.4556C21.9678 67.1886 22.2915 67.0338 22.2064 66.7487C22.119 66.4564 22.3677 66.4326 22.5369 66.3019C22.7076 66.1709 22.4983 65.8126 22.778 65.6636C22.6181 65.5236 22.4503 65.6113 22.2861 65.5885C22.1194 65.809 22.2388 66.1211 21.9631 66.3492C21.5579 66.6841 21.6138 66.7382 21.3609 67.6974C21.2688 68.046 21.0917 68.3718 20.9437 68.7305C20.4894 68.3993 20.5608 67.9706 20.7322 67.5592C20.8759 67.2142 20.9516 66.8501 21.0664 66.5138C21.1739 66.1991 21.1169 65.7303 21.555 65.5322C21.8498 65.3991 21.7943 64.9487 22.1187 64.8094C22.2255 64.9231 22.3262 65.0642 22.5867 64.9386C22.4618 64.7838 22.3413 64.6344 22.2168 64.4803C22.4784 64.3226 22.704 64.3533 22.8934 64.6019C23.2312 64.0762 23.9439 64.2378 24.2983 63.808C24.6068 63.8171 24.6786 64.0859 24.8821 64.2158C24.9226 64.0978 24.9619 63.9838 25.0027 63.8661C25.1355 63.7748 25.2643 64.1721 25.4404 63.8575C25.4909 63.7673 25.8146 63.7806 25.9921 63.8268C26.1304 63.8629 26.2473 64.0134 26.3544 64.1303C26.5078 64.2981 26.7366 64.1267 26.8997 64.2519C26.6832 64.5745 26.9535 64.7845 27.0585 65.0176C27.2097 65.354 27.7319 65.0292 27.8942 65.5575C27.9025 65.6015 27.6164 65.673 27.7203 65.8245C28.0988 66.3777 27.9116 67.1056 28.3002 67.653C28.3312 67.6967 28.2804 67.7959 28.3096 67.8443C28.5167 68.1878 27.7766 68.5252 28.3053 68.8641C28.3053 69.2249 28.3958 69.6168 28.2843 69.9394C28.1115 70.4392 28.1151 70.9336 28.11 71.4392C28.1097 71.4998 28.131 71.5611 28.1461 71.6441C28.3388 71.6762 28.3854 71.4846 28.4842 71.3958C28.5528 71.3341 28.4395 71.1454 28.691 71.1158C28.6968 71.9375 28.8278 72.7617 28.1981 73.4816" fill="black"/>
<path fill-rule="evenodd" clip-rule="evenodd" d="M47.3945 7.65699C47.402 7.4881 47.4017 7.39211 47.3068 7.33041C47.0358 7.16333 46.9809 7.69488 46.698 7.49099C46.6298 7.46898 46.611 7.42098 46.655 7.37696C46.8795 7.15214 47.218 6.89268 46.9228 6.58162C46.5829 6.2222 47.1296 6.08905 47.0235 5.82706C47.3324 5.74262 47.5803 5.3731 47.9588 5.62245C48.0364 5.67369 48.0844 5.77546 48.2843 5.72602C49.084 5.09596 49.5589 4.14798 49.9241 3.17149C50.0493 2.83625 50.2683 2.65546 50.4452 2.4043C51.6126 3.19422 51.6126 3.19422 52.0402 3.00008C52.3985 3.48363 52.7633 3.97043 52.7067 4.629C52.6829 4.90217 52.7659 5.12086 52.9091 5.33376C52.5717 5.75056 52.8528 6.15111 53.0029 6.5062C53.192 6.95295 53.0232 7.39789 53.1278 7.82984C53.1408 7.88433 53.2155 7.92366 53.2776 7.98537C53.0076 8.41371 52.8943 8.9467 52.3758 9.29205C51.9395 9.20616 51.4242 9.42881 50.9266 9.18198C50.4491 8.94418 49.9021 8.96583 49.4073 8.81607C48.9498 8.67714 48.5373 8.38773 48.075 8.14956C47.6579 8.23581 47.4107 8.62121 47.096 8.89618C46.501 8.92649 45.9153 9.14337 45.5508 9.4649C45.0615 9.56702 44.5216 9.32669 44.0608 9.69188C43.9028 9.48583 43.7436 9.27833 43.6635 9.17404C44.4708 9.34473 44.4278 9.25055 45.5393 8.73921C46.2245 8.42418 46.6439 7.74215 47.3945 7.65699" fill="black"/>
<path fill-rule="evenodd" clip-rule="evenodd" d="M20.8596 50.4039C20.8314 50.6521 20.8137 50.8073 20.7982 50.9408C20.7383 51.0299 20.704 51.0123 20.6427 50.9394C20.5406 50.8181 20.4128 50.7337 20.4254 50.533C20.4482 50.1736 20.4207 49.8113 20.4352 49.4512C20.4467 49.1596 20.4269 48.8752 20.2317 48.6501C19.9415 48.3145 20.0815 47.9251 20.0263 47.5783C20.4222 47.2229 20.564 46.8158 20.6586 46.3214C20.7553 45.8184 20.7361 45.28 21.0039 44.7957C21.1147 44.5954 21.0223 44.2833 21.0223 44.0311C21.228 43.82 21.4647 43.646 21.5073 43.3443H21.9165C22.1287 43.5569 21.9093 43.851 22.0551 44.0852C22.2095 44.1516 22.3947 44.1927 22.3896 43.9513C22.3846 43.6926 22.8454 43.6882 22.4852 43.2852C23.1914 43.4342 23.7024 43.6352 24.1889 43.5338C24.4754 43.5702 24.296 43.8485 24.5476 43.9553C25.2455 44.2519 25.5107 44.7914 25.5572 45.5084C25.6135 46.3767 25.401 47.1886 25.1589 48.0041C24.9734 48.627 24.6385 49.0088 23.9312 49.0647C23.2896 49.1156 23.0067 49.5086 22.9915 50.1707C22.9857 50.4295 22.9908 50.6886 22.9908 50.9379C22.7923 51.0797 22.7927 50.8246 22.6938 50.8279C22.4325 50.712 22.3477 51.1617 22.0612 50.9827C21.8898 50.8578 22.1168 50.6085 21.9396 50.4583C21.897 50.4832 21.8158 50.5078 21.8155 50.5338C21.8101 50.8196 21.5199 51.017 21.5838 51.3334C21.6011 51.419 21.429 51.4092 21.333 51.4125C21.1497 51.3064 21.232 51.1277 21.2219 50.978C21.2107 50.8185 21.2193 50.6579 21.2193 50.5536C21.1259 50.3815 21.0136 50.4482 20.8596 50.4039" fill="black"/>
<path fill-rule="evenodd" clip-rule="evenodd" d="M8.76408 27.6963C8.9676 27.7717 9.08128 27.8139 9.18051 27.8507C9.24511 28.0048 9.18665 28.0975 9.10112 28.2087C8.9474 28.4075 8.93693 28.6273 9.14515 28.8052C9.53307 29.1375 9.46704 29.4111 9.13504 29.7726C8.95209 29.9722 8.80341 30.3132 8.98348 30.6708C8.80305 30.9393 8.59014 30.5121 8.49379 30.6055C8.25851 30.8332 8.00194 30.7199 7.75692 30.7412C7.52885 30.7607 7.29826 30.7452 7.06839 30.7452H6.35172C6.13413 30.4619 5.84002 30.1923 5.70037 29.8585C5.59933 29.6186 5.49973 29.3439 5.43045 29.0787C5.34889 28.7687 5.80322 28.641 5.53798 28.3094C5.38967 28.1242 5.46942 27.7565 5.44633 27.4707C4.9902 27.0976 4.21759 27.3621 3.91844 26.6895C3.94839 26.6595 3.99494 26.6133 4.07902 26.5292C3.97221 26.3668 3.69507 26.3788 3.63733 26.0991C3.60666 25.9511 3.56588 25.6491 3.33998 25.5538C3.41684 25.394 3.49371 25.2337 3.5731 25.0677C3.61424 25.0919 3.69146 25.1136 3.69507 25.1443C3.71095 25.2727 3.66945 25.4189 3.71672 25.5304C3.76435 25.6422 3.8921 25.7198 3.9834 25.8111C4.13857 25.7563 4.06784 25.6 4.13171 25.486C4.354 25.5203 4.60624 25.8653 4.78775 25.373C4.86065 25.5639 4.90359 25.6769 4.96205 25.831C5.10315 25.8176 5.31461 25.8624 5.40013 25.779C5.83209 25.355 6.35966 24.9949 6.5834 24.4063C6.75445 23.9574 7.11098 23.7217 7.41915 23.4045C7.71722 23.598 7.70351 23.8347 7.57143 24.0018C7.40363 24.214 7.40327 24.3955 7.5256 24.6647C7.70531 24.4655 7.91533 24.3081 8.01926 24.0981C8.13762 23.8578 8.22351 23.6442 8.53132 23.6626C8.72871 23.8913 8.55225 24.1768 8.64319 24.4092C8.8976 24.4164 8.78898 24.2461 8.82651 24.1389C9.0672 23.9689 9.30717 23.9884 9.484 24.2352C9.62798 24.4359 9.68139 24.6957 9.90512 24.848C10.0708 24.9609 10.043 25.1767 9.98884 25.294C9.71747 25.88 9.61607 26.5173 9.43023 27.1268C9.3245 27.4729 9.11159 27.5552 8.76408 27.6963" fill="black"/>
<path fill-rule="evenodd" clip-rule="evenodd" d="M60.0038 7.31939C60.2008 7.31542 60.2286 7.53843 60.3996 7.58895C60.3199 7.67736 60.2585 7.74593 60.1972 7.81413C60.2539 7.90254 60.347 7.9361 60.4415 7.90976C60.6634 7.84733 60.7186 7.55287 60.9882 7.51606C61.2733 7.53446 61.4122 7.82784 61.6655 7.95703C62.3115 8.28613 62.6778 9.55203 62.4573 10.2734C62.2855 10.8334 62.2927 11.3852 62.515 12.0145C62.497 12.103 62.336 12.0153 62.2303 12.0781C62.0091 12.3624 62.2563 12.5869 62.3638 12.8344C62.2942 13.1108 62.0069 13.2011 61.8875 13.4313C61.5955 13.1859 61.335 13.061 60.9334 13.2072C60.5808 13.3357 60.4274 12.9254 60.2033 12.7363C60.2705 12.6522 60.3235 12.5869 60.3765 12.5205C60.1243 12.3119 59.9984 12.5147 59.8869 12.6544C59.6754 12.9181 59.7487 13.3739 59.2738 13.4771C59.1211 13.5103 59.2232 13.7705 59.2113 13.926C59.1879 14.2299 59.0129 14.3674 58.7545 14.4193C58.4755 14.2786 58.7509 13.9574 58.5188 13.8196C58.0642 14.1516 58.2688 14.8967 57.6192 15.2092C57.8033 14.5658 58.0136 14 58.119 13.415C58.2255 12.8254 58.8173 12.3592 58.5416 11.5981C58.1656 12.3487 57.9689 13.087 57.7062 13.8091C57.6232 13.4057 57.6423 13.0448 57.8119 12.6378C58.137 11.8565 58.3518 11.029 58.6188 10.2232C58.7621 9.79237 58.9021 9.35861 59.08 8.94182C59.1276 8.82995 59.1936 8.73757 59.2149 8.60333C59.3282 7.89568 59.3723 7.83831 60.0038 7.31939" fill="black"/>
</g>
</svg>
