<svg width="461" height="461" viewBox="0 0 461 461" fill="none" xmlns="http://www.w3.org/2000/svg">
<path d="M230.345 395.981L215.251 411.076C212.659 413.667 212.659 417.868 215.251 420.46L239.585 444.795C242.177 447.386 246.378 447.386 248.969 444.794L456.079 237.685C458.67 235.094 458.67 230.893 456.078 228.301L379.275 151.498C378.599 150.822 377.784 150.3 376.887 149.968L284.732 115.855C279.342 113.86 274.137 119.194 276.264 124.533L315.13 222.113C316.111 224.575 315.532 227.385 313.658 229.26L298.034 244.884C296.888 246.029 295.363 246.716 293.745 246.815L290.058 247.039C285.616 247.309 282.694 251.789 284.237 255.963L291.584 275.837C292.224 277.568 291.798 279.514 290.493 280.819C289.101 282.211 286.993 282.595 285.2 281.783L223.963 254.046C221.446 252.906 218.487 253.444 216.533 255.398L213.96 257.971C212.085 259.846 209.275 260.425 206.813 259.444L205.458 258.904C203.352 258.065 200.948 258.561 199.345 260.164C197.711 261.798 197.23 264.26 198.131 266.388L222.332 323.601C223.385 326.09 222.823 328.968 220.913 330.878L212.305 339.486C210.288 341.503 209.786 344.585 211.058 347.138L231.592 388.329C232.865 390.883 232.363 393.964 230.345 395.981Z" fill="url(#paint0_linear_0_479)"/>
<path d="M212.105 414.633L231.589 395.148C233.614 393.124 234.112 390.028 232.823 387.471L212.128 346.392C210.84 343.834 211.338 340.739 213.362 338.715L221.751 330.326C223.67 328.407 224.227 325.514 223.157 323.02L198.675 265.923C197.776 263.827 198.244 261.396 199.856 259.783V259.783C201.439 258.201 203.813 257.718 205.888 258.557L207.255 259.109C209.724 260.107 212.551 259.533 214.434 257.65L216.863 255.22C218.825 253.258 221.799 252.724 224.321 253.88L285.442 281.907C287.207 282.716 289.289 282.342 290.661 280.97V280.97C291.95 279.681 292.366 277.758 291.725 276.053L284.308 256.317C282.731 252.119 285.685 247.598 290.163 247.357L293.616 247.171C295.25 247.083 296.794 246.395 297.951 245.238L313.285 229.903C315.168 228.02 315.743 225.194 314.745 222.725L275.493 125.623C273.327 120.264 278.571 114.891 283.981 116.926L377.032 151.936" stroke="#4F46BA" stroke-width="2.84366" stroke-linecap="round" stroke-linejoin="round"/>
<defs>
<linearGradient id="paint0_linear_0_479" x1="196.354" y1="185.07" x2="352.524" y2="341.24" gradientUnits="userSpaceOnUse">
<stop stop-color="#4F46BA" stop-opacity="0.21"/>
<stop offset="1" stop-color="white" stop-opacity="0"/>
</linearGradient>
</defs>
</svg>
